<svg width="1920" height="512" viewBox="0 0 1920 512" fill="none" xmlns="http://www.w3.org/2000/svg">
<rect width="512" height="512" rx="80" fill="#0E0F10"/>
<circle cx="258.56" cy="253.44" r="201.195" stroke="white" stroke-width="12.3291"/>
<path d="M221.164 286.051L298.949 221.229" stroke="white" stroke-width="13.8286" stroke-linecap="round"/>
<path d="M737.8 101.4H680.2V392.55H653.2V101.4H596.05V77.55H737.8V101.4ZM755.364 105.9C755.364 93.9 761.514 87.9 773.814 87.9C780.114 87.9 784.914 89.55 788.214 92.85C791.514 96.15 793.164 100.5 793.164 105.9C793.164 117.9 786.864 123.9 774.264 123.9C761.664 123.9 755.364 117.9 755.364 105.9ZM787.764 163.5V393H761.664V163.5H787.764ZM823.082 163.5H849.182V201.75H850.982C856.382 188.25 863.432 177.75 872.132 170.25C881.132 162.75 891.032 159 901.832 159C913.232 159 922.982 162.9 931.082 170.7C939.482 178.2 945.482 188.55 949.082 201.75H950.882C956.282 188.25 963.632 177.75 972.932 170.25C982.232 162.75 992.432 159 1003.53 159C1010.73 159 1017.48 160.65 1023.78 163.95C1030.38 167.25 1036.08 172.05 1040.88 178.35C1045.68 184.35 1049.43 191.55 1052.13 199.95C1054.83 208.35 1056.18 217.65 1056.18 227.85V393H1030.08V231C1030.08 216.6 1026.78 204.9 1020.18 195.9C1013.58 186.6 1005.03 181.95 994.532 181.95C985.832 181.95 977.732 185.25 970.232 191.85C962.732 198.15 956.732 207 952.232 218.4C952.532 219.9 952.682 221.55 952.682 223.35C952.682 225.15 952.682 227.1 952.682 229.2V393H926.582V231C926.582 216.6 923.282 204.9 916.682 195.9C910.382 186.6 902.282 181.95 892.382 181.95C882.782 181.95 874.082 185.85 866.282 193.65C858.482 201.45 852.782 211.95 849.182 225.15V393H823.082V163.5ZM1110.63 325.05C1110.63 340.05 1114.38 352.2 1121.88 361.5C1129.38 370.5 1139.43 375 1152.03 375C1164.63 375 1174.68 370.5 1182.18 361.5C1189.68 352.2 1193.43 340.05 1193.43 325.05V307.95H1219.53V324.15C1219.53 346.35 1213.23 364.2 1200.63 377.7C1188.33 390.9 1171.98 397.5 1151.58 397.5C1131.18 397.5 1114.83 390.9 1102.53 377.7C1090.53 364.2 1084.53 346.35 1084.53 324.15V232.35C1084.53 210.15 1090.53 192.45 1102.53 179.25C1114.83 165.75 1131.18 159 1151.58 159C1171.98 159 1188.33 165.75 1200.63 179.25C1213.23 192.45 1219.53 210.15 1219.53 232.35V285.45H1110.63V325.05ZM1110.63 269.25H1193.43V231.45C1193.43 216.15 1189.68 204 1182.18 195C1174.68 186 1164.63 181.5 1152.03 181.5C1139.43 181.5 1129.38 186 1121.88 195C1114.38 204 1110.63 216.15 1110.63 231.45V269.25ZM1392.9 77.55V393H1365.9V243.15H1278.6V393H1251.6V77.55H1278.6V219.3H1365.9V77.55H1392.9ZM1423.77 105.9C1423.77 93.9 1429.92 87.9 1442.22 87.9C1448.52 87.9 1453.32 89.55 1456.62 92.85C1459.92 96.15 1461.57 100.5 1461.57 105.9C1461.57 117.9 1455.27 123.9 1442.67 123.9C1430.07 123.9 1423.77 117.9 1423.77 105.9ZM1456.17 163.5V393H1430.07V163.5H1456.17ZM1504.55 163.5L1546.4 364.65H1548.65L1590.5 163.5H1616.15L1566.65 393H1528.4L1478.45 163.5H1504.55ZM1656.87 325.05C1656.87 340.05 1660.62 352.2 1668.12 361.5C1675.62 370.5 1685.67 375 1698.27 375C1710.87 375 1720.92 370.5 1728.42 361.5C1735.92 352.2 1739.67 340.05 1739.67 325.05V307.95H1765.77V324.15C1765.77 346.35 1759.47 364.2 1746.87 377.7C1734.57 390.9 1718.22 397.5 1697.82 397.5C1677.42 397.5 1661.07 390.9 1648.77 377.7C1636.77 364.2 1630.77 346.35 1630.77 324.15V232.35C1630.77 210.15 1636.77 192.45 1648.77 179.25C1661.07 165.75 1677.42 159 1697.82 159C1718.22 159 1734.57 165.75 1746.87 179.25C1759.47 192.45 1765.77 210.15 1765.77 232.35V285.45H1656.87V325.05ZM1656.87 269.25H1739.67V231.45C1739.67 216.15 1735.92 204 1728.42 195C1720.92 186 1710.87 181.5 1698.27 181.5C1685.67 181.5 1675.62 186 1668.12 195C1660.62 204 1656.87 216.15 1656.87 231.45V269.25Z" fill="black"/>
</svg>
